<?xml version="1.0" encoding="UTF-8" standalone="no"?>
<!DOCTYPE svg PUBLIC "-//W3C//DTD SVG 1.1//EN"
 "http://www.w3.org/Graphics/SVG/1.1/DTD/svg11.dtd">
<!-- Generated by graphviz version 2.43.0 (0)
 -->
<!-- Title: G Pages: 1 -->
<svg width="277pt" height="247pt"
 viewBox="0.00 0.00 277.00 247.00" xmlns="http://www.w3.org/2000/svg" xmlns:xlink="http://www.w3.org/1999/xlink">
<g id="graph0" class="graph" transform="scale(1 1) rotate(0) translate(4 243)">
<title>G</title>
<polygon fill="white" stroke="transparent" points="-4,4 -4,-243 273,-243 273,4 -4,4"/>
<!-- ALU -->
<g id="node1" class="node">
<title>ALU</title>
<polygon fill="none" stroke="black" points="200.5,-239 108.5,-239 108.5,-147 200.5,-147 200.5,-239"/>
<text text-anchor="middle" x="154.5" y="-196.8" font-family="Times,serif" font-size="14.00">Arithmetic</text>
<text text-anchor="middle" x="154.5" y="-181.8" font-family="Times,serif" font-size="14.00">logic unit</text>
</g>
<!-- Control -->
<g id="node2" class="node">
<title>Control</title>
<polygon fill="none" stroke="black" points="90.5,-228 20.5,-228 20.5,-158 90.5,-158 90.5,-228"/>
<text text-anchor="middle" x="55.5" y="-196.8" font-family="Times,serif" font-size="14.00">Control</text>
<text text-anchor="middle" x="55.5" y="-181.8" font-family="Times,serif" font-size="14.00">unit</text>
</g>
<!-- ALU&#45;&gt;Control -->
<g id="edge1" class="edge">
<title>ALU&#45;&gt;Control</title>
<path fill="none" stroke="black" d="M108.14,-166.86C105.59,-166.68 103.05,-166.72 100.51,-166.97"/>
<polygon fill="black" stroke="black" points="99.8,-163.54 90.69,-168.94 101.19,-170.4 99.8,-163.54"/>
</g>
<!-- Memory -->
<g id="node3" class="node">
<title>Memory</title>
<polygon fill="none" stroke="black" points="111,-111 0,-111 0,0 111,0 111,-111"/>
<text text-anchor="middle" x="55.5" y="-66.8" font-family="Times,serif" font-size="14.00">Shared</text>
<text text-anchor="middle" x="55.5" y="-51.8" font-family="Times,serif" font-size="14.00">program and</text>
<text text-anchor="middle" x="55.5" y="-36.8" font-family="Times,serif" font-size="14.00">data memory</text>
</g>
<!-- ALU&#45;&gt;Memory -->
<g id="edge3" class="edge">
<title>ALU&#45;&gt;Memory</title>
<path fill="none" stroke="black" d="M115.13,-146.88C108.48,-138.16 101.58,-128.87 94.93,-119.69"/>
<polygon fill="black" stroke="black" points="97.59,-117.39 88.91,-111.31 91.91,-121.48 97.59,-117.39"/>
</g>
<!-- Output -->
<g id="node5" class="node">
<title>Output</title>
<polygon fill="none" stroke="black" points="196,-89 129,-89 129,-22 196,-22 196,-89"/>
<text text-anchor="middle" x="162.5" y="-51.8" font-family="Times,serif" font-size="14.00">Output</text>
</g>
<!-- ALU&#45;&gt;Output -->
<g id="edge8" class="edge">
<title>ALU&#45;&gt;Output</title>
<path fill="none" stroke="black" d="M157.16,-146.88C158.07,-131.49 159.08,-114.35 159.98,-99.16"/>
<polygon fill="black" stroke="black" points="163.49,-99.19 160.58,-89 156.5,-98.78 163.49,-99.19"/>
</g>
<!-- Control&#45;&gt;ALU -->
<g id="edge2" class="edge">
<title>Control&#45;&gt;ALU</title>
<path fill="none" stroke="black" d="M90.69,-217.06C93.14,-217.81 95.6,-218.37 98.05,-218.73"/>
<polygon fill="black" stroke="black" points="98,-222.23 108.14,-219.14 98.29,-215.24 98,-222.23"/>
</g>
<!-- Control&#45;&gt;Memory -->
<g id="edge5" class="edge">
<title>Control&#45;&gt;Memory</title>
<path fill="none" stroke="black" d="M49.55,-157.81C48.97,-146.67 48.71,-133.92 48.76,-121.3"/>
<polygon fill="black" stroke="black" points="52.26,-121.28 48.86,-111.25 45.26,-121.21 52.26,-121.28"/>
</g>
<!-- Memory&#45;&gt;ALU -->
<g id="edge4" class="edge">
<title>Memory&#45;&gt;ALU</title>
<path fill="none" stroke="black" d="M102.19,-111.31C108.88,-120.27 115.65,-129.53 121.99,-138.45"/>
<polygon fill="black" stroke="black" points="119.31,-140.73 127.94,-146.88 125.03,-136.69 119.31,-140.73"/>
</g>
<!-- Memory&#45;&gt;Control -->
<g id="edge6" class="edge">
<title>Memory&#45;&gt;Control</title>
<path fill="none" stroke="black" d="M62.14,-111.25C62.35,-123.3 62.26,-135.92 61.88,-147.5"/>
<polygon fill="black" stroke="black" points="58.37,-147.67 61.45,-157.81 65.37,-147.96 58.37,-147.67"/>
</g>
<!-- Input -->
<g id="node4" class="node">
<title>Input</title>
<polygon fill="none" stroke="black" points="269,-83 214,-83 214,-28 269,-28 269,-83"/>
<text text-anchor="middle" x="241.5" y="-51.8" font-family="Times,serif" font-size="14.00">Input</text>
</g>
<!-- Input&#45;&gt;ALU -->
<g id="edge7" class="edge">
<title>Input&#45;&gt;ALU</title>
<path fill="none" stroke="black" d="M224.32,-83.26C214.23,-98.98 201.1,-119.42 188.96,-138.32"/>
<polygon fill="black" stroke="black" points="185.93,-136.57 183.47,-146.88 191.82,-140.36 185.93,-136.57"/>
</g>
</g>
</svg>
