<?xml version="1.0" encoding="UTF-8" standalone="no"?>
<!DOCTYPE svg PUBLIC "-//W3C//DTD SVG 1.1//EN"
 "http://www.w3.org/Graphics/SVG/1.1/DTD/svg11.dtd">
<!-- Generated by graphviz version 2.43.0 (0)
 -->
<!-- Title: G Pages: 1 -->
<svg width="417pt" height="207pt"
 viewBox="0.00 0.00 417.39 207.00" xmlns="http://www.w3.org/2000/svg" xmlns:xlink="http://www.w3.org/1999/xlink">
<g id="graph0" class="graph" transform="scale(1 1) rotate(0) translate(4 203)">
<title>G</title>
<polygon fill="white" stroke="transparent" points="-4,4 -4,-203 413.39,-203 413.39,4 -4,4"/>
<g id="clust1" class="cluster">
<title>clusterCPU</title>
<polygon fill="none" stroke="black" points="8,-8 8,-191 168,-191 168,-8 8,-8"/>
<text text-anchor="middle" x="88" y="-175.8" font-family="Times,serif" font-size="14.00">CPU</text>
</g>
<!-- PC -->
<g id="node1" class="node">
<title>PC</title>
<polygon fill="none" stroke="black" points="70,-160 16,-160 16,-124 70,-124 70,-160"/>
<text text-anchor="middle" x="43" y="-138.3" font-family="Times,serif" font-size="14.00">PC</text>
</g>
<!-- R1 -->
<g id="node3" class="node">
<title>R1</title>
<polygon fill="none" stroke="black" points="160,-160 106,-160 106,-124 160,-124 160,-160"/>
<text text-anchor="middle" x="133" y="-138.3" font-family="Times,serif" font-size="14.00">R1</text>
</g>
<!-- PC&#45;&gt;R1 -->
<!-- IR -->
<g id="node2" class="node">
<title>IR</title>
<polygon fill="none" stroke="black" points="70,-79 16,-79 16,-43 70,-43 70,-79"/>
<text text-anchor="middle" x="43" y="-57.3" font-family="Times,serif" font-size="14.00">IR</text>
</g>
<!-- Memory -->
<g id="node6" class="node">
<title>Memory</title>
<polygon fill="none" stroke="black" points="272,-160 196,-160 196,-124 272,-124 272,-160"/>
<text text-anchor="middle" x="234" y="-138.3" font-family="Times,serif" font-size="14.00">Memory</text>
</g>
<!-- R1&#45;&gt;Memory -->
<g id="edge3" class="edge">
<title>R1&#45;&gt;Memory</title>
<path fill="none" stroke="black" d="M168,-135.55C173.71,-135.32 179.74,-135.22 185.72,-135.26"/>
<polygon fill="black" stroke="black" points="185.93,-138.76 196,-135.44 186.06,-131.76 185.93,-138.76"/>
</g>
<!-- R2 -->
<g id="node4" class="node">
<title>R2</title>
<polygon fill="none" stroke="black" points="160,-106 106,-106 106,-70 160,-70 160,-106"/>
<text text-anchor="middle" x="133" y="-84.3" font-family="Times,serif" font-size="14.00">R2</text>
</g>
<!-- R3 -->
<g id="node5" class="node">
<title>R3</title>
<polygon fill="none" stroke="black" points="160,-52 106,-52 106,-16 160,-16 160,-52"/>
<text text-anchor="middle" x="133" y="-30.3" font-family="Times,serif" font-size="14.00">R3</text>
</g>
<!-- Memory&#45;&gt;R1 -->
<g id="edge2" class="edge">
<title>Memory&#45;&gt;R1</title>
<path fill="none" stroke="black" d="M196,-148.56C187.58,-148.82 178.65,-148.81 170.26,-148.53"/>
<polygon fill="black" stroke="black" points="178.52,-146.8 168,-148.02 176.99,-153.63 178.52,-146.8"/>
</g>
<!-- Disk -->
<g id="node7" class="node">
<title>Disk</title>
<polygon fill="none" stroke="black" points="385.7,-187 331.7,-187 331.7,-151 385.7,-151 385.7,-187"/>
<text text-anchor="middle" x="358.7" y="-165.3" font-family="Times,serif" font-size="14.00">Disk</text>
</g>
<!-- Memory&#45;&gt;Disk -->
<g id="edge5" class="edge">
<title>Memory&#45;&gt;Disk</title>
<path fill="none" stroke="black" d="M272.15,-143.91C287.88,-146.71 306.15,-150.74 321.76,-154.88"/>
<polygon fill="black" stroke="black" points="321,-158.31 331.57,-157.61 322.87,-151.56 321,-158.31"/>
</g>
<!-- Network -->
<g id="node8" class="node">
<title>Network</title>
<ellipse fill="none" stroke="black" cx="358.7" cy="-115" rx="50.89" ry="18"/>
<text text-anchor="middle" x="358.7" y="-111.3" font-family="Times,serif" font-size="14.00">Network</text>
</g>
<!-- Memory&#45;&gt;Network -->
<g id="edge7" class="edge">
<title>Memory&#45;&gt;Network</title>
<path fill="none" stroke="black" stroke-dasharray="1,5" d="M272.15,-127.57C280.64,-125.33 289.87,-123.14 299.02,-121.17"/>
<polygon fill="black" stroke="black" points="299.81,-124.58 308.89,-119.12 298.38,-117.73 299.81,-124.58"/>
</g>
<!-- Disk&#45;&gt;Memory -->
<g id="edge4" class="edge">
<title>Disk&#45;&gt;Memory</title>
<path fill="none" stroke="black" d="M331.57,-168.89C317.11,-166.74 298.71,-163 281.85,-158.89"/>
<polygon fill="black" stroke="black" points="282.7,-155.49 272.15,-156.43 280.98,-162.28 282.7,-155.49"/>
</g>
<!-- Network&#45;&gt;Memory -->
<g id="edge6" class="edge">
<title>Network&#45;&gt;Memory</title>
<path fill="none" stroke="black" stroke-dasharray="1,5" d="M324.43,-128.4C311.42,-131.93 296.27,-135.43 282.18,-138.21"/>
<polygon fill="black" stroke="black" points="281.33,-134.8 272.15,-140.09 282.62,-141.68 281.33,-134.8"/>
</g>
</g>
</svg>
