<?xml version="1.0" encoding="UTF-8" standalone="no"?>
<!DOCTYPE svg PUBLIC "-//W3C//DTD SVG 1.1//EN"
 "http://www.w3.org/Graphics/SVG/1.1/DTD/svg11.dtd">
<!-- Generated by graphviz version 2.43.0 (0)
 -->
<!-- Title: G Pages: 1 -->
<svg width="679pt" height="353pt"
 viewBox="0.00 0.00 678.78 353.09" xmlns="http://www.w3.org/2000/svg" xmlns:xlink="http://www.w3.org/1999/xlink">
<g id="graph0" class="graph" transform="scale(1 1) rotate(0) translate(4 349.09)">
<title>G</title>
<polygon fill="white" stroke="transparent" points="-4,4 -4,-349.09 674.78,-349.09 674.78,4 -4,4"/>
<!-- New -->
<g id="node1" class="node">
<title>New</title>
<ellipse fill="lightgrey" stroke="black" cx="120.45" cy="-305.45" rx="31.7" ry="31.7"/>
<text text-anchor="middle" x="120.45" y="-301.75" font-family="Times,serif" font-size="14.00">New</text>
</g>
<!-- Ready -->
<g id="node2" class="node">
<title>Ready</title>
<ellipse fill="lightgrey" stroke="black" cx="341.34" cy="-305.45" rx="39.79" ry="39.79"/>
<text text-anchor="middle" x="341.34" y="-301.75" font-family="Times,serif" font-size="14.00">Ready</text>
</g>
<!-- New&#45;&gt;Ready -->
<g id="edge1" class="edge">
<title>New&#45;&gt;Ready</title>
<path fill="none" stroke="black" d="M152.34,-305.45C188.49,-305.45 248.79,-305.45 291.34,-305.45"/>
<polygon fill="black" stroke="black" points="291.48,-308.95 301.48,-305.45 291.48,-301.95 291.48,-308.95"/>
<text text-anchor="middle" x="221.79" y="-309.25" font-family="Times,serif" font-size="14.00">initialised</text>
</g>
<!-- Running -->
<g id="node3" class="node">
<title>Running</title>
<ellipse fill="lightgrey" stroke="black" cx="341.34" cy="-180.45" rx="50.09" ry="50.09"/>
<text text-anchor="middle" x="341.34" y="-176.75" font-family="Times,serif" font-size="14.00">Running</text>
</g>
<!-- Ready&#45;&gt;Running -->
<g id="edge2" class="edge">
<title>Ready&#45;&gt;Running</title>
<path fill="none" stroke="black" d="M341.34,-265.7C341.34,-257.76 341.34,-249.26 341.34,-240.81"/>
<polygon fill="black" stroke="black" points="344.84,-240.57 341.34,-230.57 337.84,-240.57 344.84,-240.57"/>
<text text-anchor="middle" x="330.84" y="-244.45" font-family="Times,serif" font-size="14.00">scheduled</text>
</g>
<!-- Running&#45;&gt;Ready -->
<g id="edge3" class="edge">
<title>Running&#45;&gt;Ready</title>
<path fill="none" stroke="black" d="M361.17,-226.61C362.25,-236.72 362.69,-249.74 362.15,-261.04"/>
<polygon fill="black" stroke="black" points="358.65,-260.96 361.33,-271.21 365.63,-261.52 358.65,-260.96"/>
<text text-anchor="middle" x="351.84" y="-244.45" font-family="Times,serif" font-size="14.00">interrupt</text>
</g>
<!-- Blocked -->
<g id="node4" class="node">
<title>Blocked</title>
<ellipse fill="lightgrey" stroke="black" cx="341.34" cy="-47.45" rx="47.39" ry="47.39"/>
<text text-anchor="middle" x="341.34" y="-43.75" font-family="Times,serif" font-size="14.00">Blocked</text>
</g>
<!-- Running&#45;&gt;Blocked -->
<g id="edge4" class="edge">
<title>Running&#45;&gt;Blocked</title>
<path fill="none" stroke="black" d="M341.34,-129.99C341.34,-121.94 341.34,-113.56 341.34,-105.35"/>
<polygon fill="black" stroke="black" points="344.84,-105.09 341.34,-95.09 337.84,-105.09 344.84,-105.09"/>
<text text-anchor="middle" x="330.84" y="-108.95" font-family="Times,serif" font-size="14.00">wait for I/O</text>
</g>
<!-- Exit -->
<g id="node5" class="node">
<title>Exit</title>
<ellipse fill="lightgrey" stroke="black" cx="519.28" cy="-180.45" rx="29.8" ry="29.8"/>
<text text-anchor="middle" x="519.28" y="-176.75" font-family="Times,serif" font-size="14.00">Exit</text>
</g>
<!-- Running&#45;&gt;Exit -->
<g id="edge5" class="edge">
<title>Running&#45;&gt;Exit</title>
<path fill="none" stroke="black" d="M391.82,-180.45C419.42,-180.45 453.32,-180.45 479.08,-180.45"/>
<polygon fill="black" stroke="black" points="479.22,-183.95 489.22,-180.45 479.22,-176.95 479.22,-183.95"/>
<text text-anchor="middle" x="440.39" y="-184.25" font-family="Times,serif" font-size="14.00">Finished</text>
</g>
<!-- Blocked&#45;&gt;Ready -->
<g id="edge6" class="edge">
<title>Blocked&#45;&gt;Ready</title>
<path fill="none" stroke="black" d="M296.52,-63.98C242.34,-86.82 161.65,-131.65 189.29,-187.95 211.32,-232.81 259.63,-265.4 295.93,-284.72"/>
<polygon fill="black" stroke="black" points="294.38,-287.86 304.87,-289.35 297.6,-281.64 294.38,-287.86"/>
<text text-anchor="middle" x="221.79" y="-176.75" font-family="Times,serif" font-size="14.00">Wait complete</text>
</g>
<!-- End -->
<g id="node7" class="node">
<title>End</title>
<ellipse fill="lightgrey" stroke="black" cx="668.98" cy="-180.45" rx="1.8" ry="1.8"/>
</g>
<!-- Exit&#45;&gt;End -->
<g id="edge8" class="edge">
<title>Exit&#45;&gt;End</title>
<path fill="none" stroke="black" d="M549.46,-180.45C582.41,-180.45 634.35,-180.45 656.91,-180.45"/>
<polygon fill="black" stroke="black" points="657.12,-183.95 667.12,-180.45 657.12,-176.95 657.12,-183.95"/>
<text text-anchor="middle" x="608.18" y="-184.25" font-family="Times,serif" font-size="14.00">OS cleanup</text>
</g>
<!-- Start -->
<g id="node6" class="node">
<title>Start</title>
<ellipse fill="lightgrey" stroke="black" cx="1.8" cy="-305.45" rx="1.8" ry="1.8"/>
</g>
<!-- Start&#45;&gt;New -->
<g id="edge7" class="edge">
<title>Start&#45;&gt;New</title>
<path fill="none" stroke="black" d="M4.11,-305.45C11.43,-305.45 48.03,-305.45 78.07,-305.45"/>
<polygon fill="black" stroke="black" points="78.36,-308.95 88.36,-305.45 78.36,-301.95 78.36,-308.95"/>
<text text-anchor="middle" x="46.1" y="-309.25" font-family="Times,serif" font-size="14.00">Spawn</text>
</g>
</g>
</svg>
