<?xml version="1.0" encoding="UTF-8" standalone="no"?>
<!DOCTYPE svg PUBLIC "-//W3C//DTD SVG 1.1//EN"
 "http://www.w3.org/Graphics/SVG/1.1/DTD/svg11.dtd">
<!-- Generated by graphviz version 2.43.0 (0)
 -->
<!-- Title: G Pages: 1 -->
<svg width="500pt" height="322pt"
 viewBox="0.00 0.00 500.39 322.25" xmlns="http://www.w3.org/2000/svg" xmlns:xlink="http://www.w3.org/1999/xlink">
<g id="graph0" class="graph" transform="scale(1 1) rotate(0) translate(4 318.25)">
<title>G</title>
<polygon fill="white" stroke="transparent" points="-4,4 -4,-318.25 496.39,-318.25 496.39,4 -4,4"/>
<!-- CPU -->
<g id="node1" class="node">
<title>CPU</title>
<ellipse fill="none" stroke="black" cx="461.2" cy="-31.2" rx="31.4" ry="31.4"/>
<text text-anchor="middle" x="461.2" y="-27.5" font-family="Times,serif" font-size="14.00">CPU</text>
</g>
<!-- Q0 -->
<g id="node2" class="node">
<title>Q0</title>
<ellipse fill="none" stroke="black" cx="461.2" cy="-122.2" rx="24.1" ry="24.1"/>
<text text-anchor="middle" x="461.2" y="-118.5" font-family="Times,serif" font-size="14.00">Q0</text>
</g>
<!-- Q0&#45;&gt;CPU -->
<g id="edge3" class="edge">
<title>Q0&#45;&gt;CPU</title>
<path fill="none" stroke="black" d="M461.2,-97.94C461.2,-89.53 461.2,-81.13 461.2,-72.73"/>
<polygon fill="black" stroke="black" points="464.7,-72.48 461.2,-62.48 457.7,-72.48 464.7,-72.48"/>
</g>
<!-- Q1 -->
<g id="node3" class="node">
<title>Q1</title>
<ellipse fill="none" stroke="black" cx="461.2" cy="-206.2" rx="24.1" ry="24.1"/>
<text text-anchor="middle" x="461.2" y="-202.5" font-family="Times,serif" font-size="14.00">Q1</text>
</g>
<!-- Q1&#45;&gt;Q0 -->
<g id="edge2" class="edge">
<title>Q1&#45;&gt;Q0</title>
<path fill="none" stroke="black" d="M461.2,-181.94C461.2,-173.53 461.2,-165.13 461.2,-156.73"/>
<polygon fill="black" stroke="black" points="464.7,-156.48 461.2,-146.48 457.7,-156.48 464.7,-156.48"/>
</g>
<!-- Q2 -->
<g id="node4" class="node">
<title>Q2</title>
<ellipse fill="none" stroke="black" cx="461.2" cy="-290.2" rx="24.1" ry="24.1"/>
<text text-anchor="middle" x="461.2" y="-286.5" font-family="Times,serif" font-size="14.00">Q2</text>
</g>
<!-- Q2&#45;&gt;Q1 -->
<g id="edge1" class="edge">
<title>Q2&#45;&gt;Q1</title>
<path fill="none" stroke="black" d="M461.2,-265.94C461.2,-257.53 461.2,-249.13 461.2,-240.73"/>
<polygon fill="black" stroke="black" points="464.7,-240.48 461.2,-230.48 457.7,-240.48 464.7,-240.48"/>
</g>
<!-- Empty -->
<g id="node5" class="node">
<title>Empty</title>
<text text-anchor="middle" x="361" y="-118.5" font-family="Times,serif" font-size="14.00">Empty</text>
</g>
<!-- Empty&#45;&gt;Q0 -->
<g id="edge5" class="edge">
<title>Empty&#45;&gt;Q0</title>
<path fill="none" stroke="black" d="M393.07,-122.2C403.89,-122.2 416.06,-122.2 427.04,-122.2"/>
<polygon fill="black" stroke="black" points="427.11,-125.7 437.11,-122.2 427.11,-118.7 427.11,-125.7"/>
</g>
<!-- P -->
<g id="node6" class="node">
<title>P</title>
<polygon fill="none" stroke="black" points="379,-49.2 343,-49.2 343,-13.2 379,-13.2 379,-49.2"/>
</g>
<!-- P&#45;&gt;CPU -->
<g id="edge4" class="edge">
<title>P&#45;&gt;CPU</title>
<path fill="none" stroke="black" d="M379.1,-31.2C390.34,-31.2 405.52,-31.2 419.72,-31.2"/>
<polygon fill="black" stroke="black" points="419.81,-34.7 429.81,-31.2 419.81,-27.7 419.81,-34.7"/>
</g>
<!-- Pnext -->
<g id="node7" class="node">
<title>Pnext</title>
<polygon fill="yellow" stroke="black" points="385,-230.2 337,-230.2 337,-182.2 385,-182.2 385,-230.2"/>
<text text-anchor="middle" x="361" y="-202.5" font-family="Times,serif" font-size="14.00">proc</text>
</g>
<!-- Pnext&#45;&gt;Q1 -->
<g id="edge7" class="edge">
<title>Pnext&#45;&gt;Q1</title>
<path fill="none" stroke="black" d="M385.27,-206.2C397.75,-206.2 413.33,-206.2 427.05,-206.2"/>
<polygon fill="black" stroke="black" points="427.09,-209.7 437.09,-206.2 427.09,-202.7 427.09,-209.7"/>
</g>
<!-- Pnext&#45;&gt;P -->
<g id="edge12" class="edge">
<title>Pnext&#45;&gt;P</title>
<path fill="none" stroke="black" stroke-dasharray="1,5" d="M336.95,-198.26C298.02,-183.99 227.71,-151.45 250,-108.7 267.42,-75.29 306.55,-53.33 333.37,-41.58"/>
<polygon fill="black" stroke="black" points="334.75,-44.8 342.63,-37.71 332.06,-38.34 334.75,-44.8"/>
<text text-anchor="middle" x="273.5" y="-112.5" font-family="Times,serif" font-size="14.00">Scheduled</text>
</g>
<!-- P1a -->
<g id="node8" class="node">
<title>P1a</title>
<polygon fill="lightgrey" stroke="black" points="218,-230.2 170,-230.2 170,-182.2 218,-182.2 218,-230.2"/>
<text text-anchor="middle" x="194" y="-202.5" font-family="Times,serif" font-size="14.00">proc</text>
</g>
<!-- P1a&#45;&gt;Pnext -->
<g id="edge6" class="edge">
<title>P1a&#45;&gt;Pnext</title>
<path fill="none" stroke="black" d="M218.29,-206.2C246.54,-206.2 294.38,-206.2 326.56,-206.2"/>
<polygon fill="black" stroke="black" points="326.83,-209.7 336.83,-206.2 326.83,-202.7 326.83,-209.7"/>
</g>
<!-- P2a -->
<g id="node9" class="node">
<title>P2a</title>
<polygon fill="lightgrey" stroke="black" points="48,-314.2 0,-314.2 0,-266.2 48,-266.2 48,-314.2"/>
<text text-anchor="middle" x="24" y="-286.5" font-family="Times,serif" font-size="14.00">proc</text>
</g>
<!-- P2b -->
<g id="node10" class="node">
<title>P2b</title>
<polygon fill="lightgrey" stroke="black" points="133,-314.2 85,-314.2 85,-266.2 133,-266.2 133,-314.2"/>
<text text-anchor="middle" x="109" y="-286.5" font-family="Times,serif" font-size="14.00">proc</text>
</g>
<!-- P2a&#45;&gt;P2b -->
<g id="edge8" class="edge">
<title>P2a&#45;&gt;P2b</title>
<path fill="none" stroke="black" d="M48.12,-290.2C56.33,-290.2 65.73,-290.2 74.62,-290.2"/>
<polygon fill="black" stroke="black" points="74.72,-293.7 84.72,-290.2 74.72,-286.7 74.72,-293.7"/>
</g>
<!-- Q2c -->
<g id="node11" class="node">
<title>Q2c</title>
<polygon fill="lightgrey" stroke="black" points="218,-314.2 170,-314.2 170,-266.2 218,-266.2 218,-314.2"/>
<text text-anchor="middle" x="194" y="-286.5" font-family="Times,serif" font-size="14.00">proc</text>
</g>
<!-- P2b&#45;&gt;Q2c -->
<g id="edge9" class="edge">
<title>P2b&#45;&gt;Q2c</title>
<path fill="none" stroke="black" d="M133.12,-290.2C141.33,-290.2 150.73,-290.2 159.62,-290.2"/>
<polygon fill="black" stroke="black" points="159.72,-293.7 169.72,-290.2 159.72,-286.7 159.72,-293.7"/>
</g>
<!-- Q2d -->
<g id="node12" class="node">
<title>Q2d</title>
<polygon fill="lightgrey" stroke="black" points="385,-314.2 337,-314.2 337,-266.2 385,-266.2 385,-314.2"/>
<text text-anchor="middle" x="361" y="-286.5" font-family="Times,serif" font-size="14.00">proc</text>
</g>
<!-- Q2c&#45;&gt;Q2d -->
<g id="edge10" class="edge">
<title>Q2c&#45;&gt;Q2d</title>
<path fill="none" stroke="black" d="M218.29,-290.2C246.54,-290.2 294.38,-290.2 326.56,-290.2"/>
<polygon fill="black" stroke="black" points="326.83,-293.7 336.83,-290.2 326.83,-286.7 326.83,-293.7"/>
</g>
<!-- Q2d&#45;&gt;Q2 -->
<g id="edge11" class="edge">
<title>Q2d&#45;&gt;Q2</title>
<path fill="none" stroke="black" d="M385.27,-290.2C397.75,-290.2 413.33,-290.2 427.05,-290.2"/>
<polygon fill="black" stroke="black" points="427.09,-293.7 437.09,-290.2 427.09,-286.7 427.09,-293.7"/>
</g>
</g>
</svg>
